<svg version="1.1" xmlns="http://www.w3.org/2000/svg" viewBox="0 0 1091.091525193519 596.2948957440086" width="3273.2745755805568" height="1788.884687232026">
  <!-- svg-source:excalidraw -->
  
  <defs>
    <style class="style-fonts">
      @font-face {
        font-family: "Virgil";
        src: url("https://excalidraw.com/Virgil.woff2");
      }
      @font-face {
        font-family: "Cascadia";
        src: url("https://excalidraw.com/Cascadia.woff2");
      }
      @font-face {
        font-family: "Assistant";
        src: url("https://excalidraw.com/Assistant-Regular.woff2");
      }
    </style>
    
  </defs>
  <rect x="0" y="0" width="1091.091525193519" height="596.2948957440086" fill="#ffffff"></rect><g transform="translate(41.12153998260419 10) rotate(0 117.49594116210938 40)"><text x="0" y="14.016" font-family="Virgil, Segoe UI Emoji" font-size="16px" fill="#1e1e1e" text-anchor="start" style="white-space: pre;" direction="ltr" dominant-baseline="alphabetic">recursive CTE:</text><text x="0" y="34.016" font-family="Virgil, Segoe UI Emoji" font-size="16px" fill="#1e1e1e" text-anchor="start" style="white-space: pre;" direction="ltr" dominant-baseline="alphabetic">    anchor step (query Q1)</text><text x="0" y="54.016" font-family="Virgil, Segoe UI Emoji" font-size="16px" fill="#1e1e1e" text-anchor="start" style="white-space: pre;" direction="ltr" dominant-baseline="alphabetic">    +</text><text x="0" y="74.016" font-family="Virgil, Segoe UI Emoji" font-size="16px" fill="#1e1e1e" text-anchor="start" style="white-space: pre;" direction="ltr" dominant-baseline="alphabetic">    recursive step (query Q2)</text></g><g transform="translate(45.12370549403158 161.0905486449045) rotate(0 202.7119140625 20)"><text x="0" y="14.016" font-family="Virgil, Segoe UI Emoji" font-size="16px" fill="#1e1e1e" text-anchor="start" style="white-space: pre;" direction="ltr" dominant-baseline="alphabetic">STEP 1: run query Q1 on base table, let's call the </text><text x="0" y="34.016" font-family="Virgil, Segoe UI Emoji" font-size="16px" fill="#1e1e1e" text-anchor="start" style="white-space: pre;" direction="ltr" dominant-baseline="alphabetic">result R1, R1 goes to result table.</text></g><g stroke-opacity="0.6" fill-opacity="0.6" stroke-linecap="round" transform="translate(284.7238583270382 240.65780219583698) rotate(0 67.58816690024969 27.007663293302357)"><path d="M0 0 L135.18 0 L135.18 54.02 L0 54.02" stroke="none" stroke-width="0" fill="#ffc9c9"></path><path d="M0 0 C37.21 0, 74.43 0, 135.18 0 M135.18 0 C135.18 13.33, 135.18 26.66, 135.18 54.02 M135.18 54.02 C93.84 54.02, 52.5 54.02, 0 54.02 M0 54.02 C0 39.3, 0 24.59, 0 0" stroke="#e03131" stroke-width="1.5" fill="none" stroke-dasharray="1.5 7"></path></g><g stroke-linecap="round" transform="translate(284.7238583270382 212.98155630385466) rotate(0 67.33162264458042 14.611986407167066)"><path d="M0 0 L134.66 0 L134.66 29.22 L0 29.22" stroke="none" stroke-width="0" fill="#a5d8ff"></path><path d="M0 0 C31.72 0, 63.43 0, 134.66 0 M134.66 0 C134.66 10.6, 134.66 21.21, 134.66 29.22 M134.66 29.22 C102.25 29.22, 69.84 29.22, 0 29.22 M0 29.22 C0 18.37, 0 7.52, 0 0" stroke="#1e1e1e" stroke-width="1.5" fill="none" stroke-dasharray="1.5 7"></path></g><g transform="translate(306.2068329003296 217.98155630385466) rotate(0 45.84864807128906 9.611986407167066)"><text x="45.84864807128906" y="13.472160148285365" font-family="Virgil, Segoe UI Emoji" font-size="15.379178251467312px" fill="#1e1e1e" text-anchor="middle" style="white-space: pre;" direction="ltr" dominant-baseline="alphabetic">result table</text></g><g stroke-opacity="0.6" fill-opacity="0.6" stroke-linecap="round" transform="translate(41.07502877142224 241.33453179999708) rotate(0 67.58816690024946 26.48607328219076)"><path d="M0 0 L135.18 0 L135.18 52.97 L0 52.97" stroke="none" stroke-width="0" fill="#ffc9c9"></path><path d="M0 0 C46.97 0, 93.93 0, 135.18 0 M135.18 0 C135.18 14.49, 135.18 28.99, 135.18 52.97 M135.18 52.97 C102.26 52.97, 69.34 52.97, 0 52.97 M0 52.97 C0 36.19, 0 19.41, 0 0" stroke="#1e1e1e" stroke-width="1.5" fill="none" stroke-dasharray="1.5 7"></path></g><g stroke-linecap="round" transform="translate(41.07502877142224 212.6151058857915) rotate(0 67.33162264458042 14.611986407167066)"><path d="M0 0 L134.66 0 L134.66 29.22 L0 29.22" stroke="none" stroke-width="0" fill="#ffc9c9"></path><path d="M0 0 C44.42 0, 88.85 0, 134.66 0 M134.66 0 C134.66 6.12, 134.66 12.24, 134.66 29.22 M134.66 29.22 C90.49 29.22, 46.31 29.22, 0 29.22 M0 29.22 C0 20.87, 0 12.52, 0 0" stroke="#1e1e1e" stroke-width="1.5" fill="none" stroke-dasharray="1.5 7"></path></g><g transform="translate(67.56091777342453 217.6151058857915) rotate(0 40.845733642578125 9.611986407167066)"><text x="40.845733642578125" y="13.472160148285365" font-family="Virgil, Segoe UI Emoji" font-size="15.379178251467312px" fill="#1e1e1e" text-anchor="middle" style="white-space: pre;" direction="ltr" dominant-baseline="alphabetic">base table</text></g><g stroke-linecap="round"><g transform="translate(57.17166051949971 253.00631909950457) rotate(0 33.38892929235499 0)"><path d="M-0.8 -1.77 C23.97 -2.47, 52.71 1.7, 65.48 3.22 M-0.2 0.84 C19.92 -1.33, 41.25 -2.04, 68.03 -1.87" stroke="#1e1e1e" stroke-width="1" fill="none"></path></g></g><mask></mask><g stroke-linecap="round"><g transform="translate(53.0002845395843 266.5721397516635) rotate(0 28.171909090423924 0)"><path d="M2.7 1.04 C13.39 -3.1, 33.31 -1.61, 58.85 3.19 M1.39 -1.46 C21.06 0.05, 38.48 0.8, 58.23 -1.19" stroke="#1e1e1e" stroke-width="1" fill="none"></path></g></g><mask></mask><g stroke-linecap="round"><g transform="translate(56.12937656992881 279.09388430894774) rotate(0 30.25871717119594 0)"><path d="M-0.57 2.74 C16.28 2.93, 37.39 3.41, 61.09 3.84 M1.65 -0.55 C18.97 -0.08, 35.21 1.14, 59.14 1.84" stroke="#1e1e1e" stroke-width="1" fill="none"></path></g></g><mask></mask><g stroke-linecap="round"><g transform="translate(298.8257093346556 253.6460473404981) rotate(0 33.38892929235499 0)"><path d="M3.83 3.59 C25.45 -0.58, 51.24 2.22, 65.75 3.07 M1.11 1.31 C13.34 -1.75, 28.37 -1.75, 67.18 -0.31" stroke="#1e1e1e" stroke-width="1" fill="none"></path></g></g><mask></mask><g stroke-linecap="round"><g transform="translate(299.8702334658565 267.21186799265695) rotate(0 28.171909090423924 0)"><path d="M-0.54 0.35 C20.03 2.13, 40.55 2.06, 52.77 -2.7 M-0.73 -1.68 C17.42 -2.42, 34.76 -1.05, 56.35 -1.59" stroke="#1e1e1e" stroke-width="1" fill="none"></path></g></g><mask></mask><g stroke-linecap="round"><g transform="translate(302.9993254962001 279.7336125499413) rotate(0 30.25871717119594 0)"><path d="M-0.76 3.15 C22.56 2.97, 43.59 -2.81, 60.71 2.21 M0.24 -1.68 C22.52 0.71, 44.25 -0.57, 60.25 0.53" stroke="#1e1e1e" stroke-width="1" fill="none"></path></g></g><mask></mask><g transform="translate(46.89800295006444 351.5516674892307) rotate(0 191.1999053955078 20)"><text x="0" y="14.016" font-family="Virgil, Segoe UI Emoji" font-size="16px" fill="#1e1e1e" text-anchor="start" style="white-space: pre;" direction="ltr" dominant-baseline="alphabetic">STEP 2: apply the recursive step (query Q2) on</text><text x="0" y="34.016" font-family="Virgil, Segoe UI Emoji" font-size="16px" fill="#1e1e1e" text-anchor="start" style="white-space: pre;" direction="ltr" dominant-baseline="alphabetic">R1, append the result (R2) in the result table.</text></g><g transform="translate(432.6368869384769 257.233665266907) rotate(0 7.5919952392578125 10)"><text x="0" y="14.016" font-family="Virgil, Segoe UI Emoji" font-size="16px" fill="#e03131" text-anchor="start" style="white-space: pre;" direction="ltr" dominant-baseline="alphabetic">R1</text></g><g mask="url(#mask-9owuThGyyT10OD92ba4-A)" stroke-linecap="round"><g transform="translate(182.99402300496422 270.039232291743) rotate(0 47.94996048891153 -0.8472304088087697)"><path d="M0 0 C37.92 -0.67, 75.84 -1.34, 95.9 -1.69 M0 0 C32.31 -0.57, 64.63 -1.14, 95.9 -1.69" stroke="#1e1e1e" stroke-width="1" fill="none"></path></g><g transform="translate(182.99402300496422 270.039232291743) rotate(0 47.94996048891153 -0.8472304088087697)"><path d="M72.56 7.27 C81.79 3.73, 91.02 0.18, 95.9 -1.69 M72.56 7.27 C80.43 4.25, 88.29 1.23, 95.9 -1.69" stroke="#1e1e1e" stroke-width="1" fill="none"></path></g><g transform="translate(182.99402300496422 270.039232291743) rotate(0 47.94996048891153 -0.8472304088087697)"><path d="M72.26 -9.83 C81.61 -6.61, 90.96 -3.4, 95.9 -1.69 M72.26 -9.83 C80.23 -7.09, 88.19 -4.35, 95.9 -1.69" stroke="#1e1e1e" stroke-width="1" fill="none"></path></g></g><mask id="mask-9owuThGyyT10OD92ba4-A"><rect x="0" y="0" fill="#fff" width="378.8939439827873" height="371.73369310936056"></rect><rect x="223.1359848366492" y="259.1920018829342" fill="#000" width="15.615997314453125" height="20" opacity="1"></rect></mask><g transform="translate(223.1359848366492 259.1920018829342) rotate(0 7.8079986572265625 10)"><text x="7.8079986572265625" y="14.016" font-family="Virgil, Segoe UI Emoji" font-size="16px" fill="#1e1e1e" text-anchor="middle" style="white-space: pre;" direction="ltr" dominant-baseline="alphabetic">Q1</text></g><g stroke-opacity="0.6" fill-opacity="0.6" stroke-linecap="round" transform="translate(293.1629897267517 472.70377499551626) rotate(0 67.58816690024946 27.007663293302357)"><path d="M0 0 L135.18 0 L135.18 54.02 L0 54.02" stroke="none" stroke-width="0" fill="#ffc9c9"></path><path d="M0 0 C39.85 0, 79.7 0, 135.18 0 M135.18 0 C135.18 11.78, 135.18 23.57, 135.18 54.02 M135.18 54.02 C95.54 54.02, 55.9 54.02, 0 54.02 M0 54.02 C0 33.17, 0 12.32, 0 0" stroke="#e03131" stroke-width="1.5" fill="none" stroke-dasharray="1.5 7"></path></g><g stroke-linecap="round" transform="translate(293.1629897267517 445.0275291035339) rotate(0 67.33162264458042 14.61198640716708)"><path d="M0 0 L134.66 0 L134.66 29.22 L0 29.22" stroke="none" stroke-width="0" fill="#a5d8ff"></path><path d="M0 0 C27.63 0, 55.26 0, 134.66 0 M134.66 0 C134.66 7.24, 134.66 14.48, 134.66 29.22 M134.66 29.22 C93.02 29.22, 51.37 29.22, 0 29.22 M0 29.22 C0 20.27, 0 11.32, 0 0" stroke="#1e1e1e" stroke-width="1.5" fill="none" stroke-dasharray="1.5 7"></path></g><g transform="translate(314.64596430004303 450.0275291035339) rotate(0 45.84864807128906 9.61198640716708)"><text x="45.84864807128906" y="13.472160148285365" font-family="Virgil, Segoe UI Emoji" font-size="15.379178251467312px" fill="#1e1e1e" text-anchor="middle" style="white-space: pre;" direction="ltr" dominant-baseline="alphabetic">result table</text></g><g stroke-linecap="round"><g transform="translate(308.3080207565922 485.6920201401773) rotate(0 33.38892929235499 0)"><path d="M3.06 0.37 C21.14 3.95, 34.73 3.66, 70.22 0.46 M-1.57 -0.64 C18.53 -0.49, 39.88 -1.69, 67.94 -0.32" stroke="#1e1e1e" stroke-width="1" fill="none"></path></g></g><mask></mask><g stroke-linecap="round"><g transform="translate(309.3525448877931 499.2578407923362) rotate(0 28.171909090423924 0)"><path d="M2.27 3.86 C13.52 3.47, 36.48 0.36, 56.6 -0.04 M-1.92 0.07 C18.26 -0.77, 39.73 0.04, 57.45 1.05" stroke="#1e1e1e" stroke-width="1" fill="none"></path></g></g><mask></mask><g stroke-linecap="round"><g transform="translate(312.4816369181367 511.77958534962056) rotate(0 30.25871717119594 0)"><path d="M-3 3.57 C22.15 -0.71, 37.68 -1.21, 62.21 -3.14 M-1.02 -1.13 C17.38 -0.36, 33.54 1, 58.63 0.67" stroke="#1e1e1e" stroke-width="1" fill="none"></path></g></g><mask></mask><g transform="translate(442.1191983604135 489.27963806658624) rotate(0 7.5919952392578125 10)"><text x="0" y="14.016" font-family="Virgil, Segoe UI Emoji" font-size="16px" fill="#e03131" text-anchor="start" style="white-space: pre;" direction="ltr" dominant-baseline="alphabetic">R1</text></g><g mask="url(#mask-QxNh26HvfCfs5Cs_H2sH3)" stroke-linecap="round"><g transform="translate(192.47633442690085 502.8774099072971) rotate(0 47.40678046668836 20.307265036818222)"><path d="M0 0 C36.91 15.81, 73.82 31.62, 94.81 40.61 M0 0 C25.41 10.89, 50.83 21.77, 94.81 40.61" stroke="#1e1e1e" stroke-width="1" fill="none"></path></g><g transform="translate(192.47633442690085 502.8774099072971) rotate(0 47.40678046668836 20.307265036818222)"><path d="M69.85 39.22 C79.57 39.77, 89.29 40.31, 94.81 40.61 M69.85 39.22 C76.54 39.6, 83.23 39.97, 94.81 40.61" stroke="#1e1e1e" stroke-width="1" fill="none"></path></g><g transform="translate(192.47633442690085 502.8774099072971) rotate(0 47.40678046668836 20.307265036818222)"><path d="M76.59 23.5 C83.68 30.17, 90.78 36.83, 94.81 40.61 M76.59 23.5 C81.47 28.09, 86.36 32.68, 94.81 40.61" stroke="#1e1e1e" stroke-width="1" fill="none"></path></g></g><mask id="mask-QxNh26HvfCfs5Cs_H2sH3"><rect x="0" y="0" fill="#fff" width="387.28989536027757" height="643.4919399809335"></rect><rect x="228.54711635843296" y="513.1846749441154" fill="#000" width="22.6719970703125" height="20" opacity="1"></rect></mask><g transform="translate(228.54711635843296 513.1846749441154) rotate(0 11.33599853515625 9.999999999999972)"><text x="11.33599853515625" y="14.016" font-family="Virgil, Segoe UI Emoji" font-size="16px" fill="#1e1e1e" text-anchor="middle" style="white-space: pre;" direction="ltr" dominant-baseline="alphabetic">Q2</text></g><g stroke-opacity="0.6" fill-opacity="0.6" stroke-linecap="round" transform="translate(293.7464598826641 526.4891282850039) rotate(0 67.58816690024946 19.705403137739722)"><path d="M0 0 L135.18 0 L135.18 39.41 L0 39.41" stroke="none" stroke-width="0" fill="#b2f2bb"></path><path d="M0 0 C31.64 0, 63.28 0, 135.18 0 M135.18 0 C135.18 11.24, 135.18 22.48, 135.18 39.41 M135.18 39.41 C106.55 39.41, 77.91 39.41, 0 39.41 M0 39.41 C0 29.93, 0 20.45, 0 0" stroke="#2f9e44" stroke-width="1.5" fill="none" stroke-dasharray="1.5 7"></path></g><g stroke-linecap="round"><g transform="translate(307.72070945204587 536.1993280549964) rotate(0 28.171909090423924 0)"><path d="M3.24 1.42 C16.5 2.27, 39.38 -0.77, 55.01 -2.01 M1.1 1.77 C21.7 -0.19, 40.94 -0.62, 54.42 -0.73" stroke="#1e1e1e" stroke-width="1" fill="none"></path></g></g><mask></mask><g stroke-linecap="round"><g transform="translate(310.84980148238947 548.7210726122808) rotate(0 30.25871717119594 0)"><path d="M-2.63 2.8 C22.14 -0.67, 40.7 -2.44, 62.74 0.05 M1.66 0.16 C20.91 -1.33, 38.16 -1.8, 59.75 0.96" stroke="#1e1e1e" stroke-width="1" fill="none"></path></g></g><mask></mask><g transform="translate(443.4561134548544 535.1513514005204) rotate(0 11.1199951171875 10)"><text x="0" y="14.016" font-family="Virgil, Segoe UI Emoji" font-size="16px" fill="#2f9e44" text-anchor="start" style="white-space: pre;" direction="ltr" dominant-baseline="alphabetic">R2</text></g><g stroke-opacity="0.6" fill-opacity="0.6" stroke-linecap="round" transform="translate(50.55734019335932 474.3805045996763) rotate(0 67.58816690024946 26.486073282190773)"><path d="M0 0 L135.18 0 L135.18 52.97 L0 52.97" stroke="none" stroke-width="0" fill="#ffc9c9"></path><path d="M0 0 C36.12 0, 72.23 0, 135.18 0 M135.18 0 C135.18 16.45, 135.18 32.9, 135.18 52.97 M135.18 52.97 C105.19 52.97, 75.2 52.97, 0 52.97 M0 52.97 C0 33.03, 0 13.08, 0 0" stroke="#1e1e1e" stroke-width="1.5" fill="none" stroke-dasharray="1.5 7"></path></g><g stroke-linecap="round"><g transform="translate(66.65397194143634 486.05229189918384) rotate(0 33.38892929235499 0)"><path d="M-2.09 -1.71 C18.89 0.34, 34.34 0.77, 69.84 0.37 M1.79 1.72 C24.05 1.13, 47.63 1.85, 65.21 -0.64" stroke="#1e1e1e" stroke-width="1" fill="none"></path></g></g><mask></mask><g stroke-linecap="round"><g transform="translate(62.482595961520474 499.61811255134273) rotate(0 28.171909090423924 0)"><path d="M-0.02 -0.7 C9.01 0.21, 28.06 0.85, 58.61 3.86 M0.23 0.13 C12.65 -0.12, 23.78 -1.61, 54.42 0.07" stroke="#1e1e1e" stroke-width="1" fill="none"></path></g></g><mask></mask><g stroke-linecap="round"><g transform="translate(65.61168799186589 512.139857108627) rotate(0 30.25871717119594 0)"><path d="M-3.49 -0.27 C18.63 0.58, 33.4 4.07, 57.51 3.57 M-0.02 0.85 C21.78 -0.72, 44.79 0, 59.49 -1.13" stroke="#1e1e1e" stroke-width="1" fill="none"></path></g></g><mask></mask><g transform="translate(26.227284587783288 488.1650703782516) rotate(0 7.5919952392578125 10)"><text x="0" y="14.016" font-family="Virgil, Segoe UI Emoji" font-size="16px" fill="#e03131" text-anchor="start" style="white-space: pre;" direction="ltr" dominant-baseline="alphabetic">R1</text></g><g transform="translate(617.717739444503 22.770380911152614) rotate(0 212.1278839111328 20)"><text x="0" y="14.016" font-family="Virgil, Segoe UI Emoji" font-size="16px" fill="#1e1e1e" text-anchor="start" style="white-space: pre;" direction="ltr" dominant-baseline="alphabetic">STEP 3: apply the recursive step (query Q2) on R2, </text><text x="0" y="34.016" font-family="Virgil, Segoe UI Emoji" font-size="16px" fill="#1e1e1e" text-anchor="start" style="white-space: pre;" direction="ltr" dominant-baseline="alphabetic">append the result (R3) in the result table.</text></g><g stroke-opacity="0.6" fill-opacity="0.6" stroke-linecap="round" transform="translate(865.9919521271604 115.9829861191981) rotate(0 67.58816690024969 27.007663293302357)"><path d="M0 0 L135.18 0 L135.18 54.02 L0 54.02" stroke="none" stroke-width="0" fill="#ffc9c9"></path><path d="M0 0 C51.71 0, 103.42 0, 135.18 0 M135.18 0 C135.18 16.18, 135.18 32.36, 135.18 54.02 M135.18 54.02 C106.24 54.02, 77.3 54.02, 0 54.02 M0 54.02 C0 36.53, 0 19.04, 0 0" stroke="#e03131" stroke-width="1.5" fill="none" stroke-dasharray="1.5 7"></path></g><g stroke-linecap="round" transform="translate(865.9919521271604 88.30674022721561) rotate(0 67.33162264458042 14.611986407167066)"><path d="M0 0 L134.66 0 L134.66 29.22 L0 29.22" stroke="none" stroke-width="0" fill="#a5d8ff"></path><path d="M0 0 C53.33 0, 106.66 0, 134.66 0 M134.66 0 C134.66 9.12, 134.66 18.24, 134.66 29.22 M134.66 29.22 C101.18 29.22, 67.69 29.22, 0 29.22 M0 29.22 C0 18.9, 0 8.57, 0 0" stroke="#1e1e1e" stroke-width="1.5" fill="none" stroke-dasharray="1.5 7"></path></g><g transform="translate(887.4749267004518 93.30674022721561) rotate(0 45.84864807128906 9.611986407167066)"><text x="45.84864807128906" y="13.472160148285365" font-family="Virgil, Segoe UI Emoji" font-size="15.379178251467312px" fill="#1e1e1e" text-anchor="middle" style="white-space: pre;" direction="ltr" dominant-baseline="alphabetic">result table</text></g><g stroke-linecap="round"><g transform="translate(881.1369831570009 128.97123126385915) rotate(0 33.38892929235499 0)"><path d="M0.48 1.12 C24.27 -1.88, 42.09 -2.36, 63.7 -2.05 M1.84 0.48 C27.74 2.39, 52.95 0.2, 65.54 -1.29" stroke="#1e1e1e" stroke-width="1" fill="none"></path></g></g><mask></mask><g stroke-linecap="round"><g transform="translate(882.1815072882018 142.53705191601804) rotate(0 28.171909090423924 0)"><path d="M2.02 -2.96 C9.96 -3.75, 21.66 -2.37, 59.91 2.54 M1.76 1.07 C12.31 -1.39, 21.4 -1.55, 56.42 -0.31" stroke="#1e1e1e" stroke-width="1" fill="none"></path></g></g><mask></mask><g stroke-linecap="round"><g transform="translate(885.3105993185454 155.0587964733024) rotate(0 30.25871717119594 0)"><path d="M-2.41 -3.44 C16.78 -1.16, 43.27 3.44, 56.55 3.68 M0.99 -1.13 C18.36 -1.93, 39.26 -0.95, 60.59 1.78" stroke="#1e1e1e" stroke-width="1" fill="none"></path></g></g><mask></mask><g transform="translate(1014.9481607608222 132.5588491902681) rotate(0 7.5919952392578125 10)"><text x="0" y="14.016" font-family="Virgil, Segoe UI Emoji" font-size="16px" fill="#e03131" text-anchor="start" style="white-space: pre;" direction="ltr" dominant-baseline="alphabetic">R1</text></g><g mask="url(#mask-NxnKpl3d6py9_IxzNLC3D)" stroke-linecap="round"><g transform="translate(765.3052968273096 145.66715712423786) rotate(0 46.90678046668859 20.430605013653263)"><path d="M0 0 C20.08 8.75, 40.17 17.49, 93.81 40.86 M0 0 C30.37 13.23, 60.75 26.46, 93.81 40.86" stroke="#1e1e1e" stroke-width="1" fill="none"></path></g><g transform="translate(765.3052968273096 145.66715712423786) rotate(0 46.90678046668859 20.430605013653263)"><path d="M68.86 39.32 C74.2 39.65, 79.54 39.98, 93.81 40.86 M68.86 39.32 C76.94 39.82, 85.02 40.32, 93.81 40.86" stroke="#1e1e1e" stroke-width="1" fill="none"></path></g><g transform="translate(765.3052968273096 145.66715712423786) rotate(0 46.90678046668859 20.430605013653263)"><path d="M75.69 23.64 C79.57 27.33, 83.45 31.01, 93.81 40.86 M75.69 23.64 C81.56 29.22, 87.43 34.79, 93.81 40.86" stroke="#1e1e1e" stroke-width="1" fill="none"></path></g></g><mask id="mask-NxnKpl3d6py9_IxzNLC3D"><rect x="0" y="0" fill="#fff" width="959.1188577606868" height="286.5283671515444"></rect><rect x="800.8760787588417" y="156.09776213789112" fill="#000" width="22.6719970703125" height="20" opacity="1"></rect></mask><g transform="translate(800.8760787588417 156.0977621378912) rotate(0 11.335998535156477 10)"><text x="11.33599853515625" y="14.016" font-family="Virgil, Segoe UI Emoji" font-size="16px" fill="#1e1e1e" text-anchor="middle" style="white-space: pre;" direction="ltr" dominant-baseline="alphabetic">Q2</text></g><g stroke-opacity="0.6" fill-opacity="0.6" stroke-linecap="round" transform="translate(865.5754222830728 169.7683394086857) rotate(0 67.58816690024969 19.705403137739722)"><path d="M0 0 L135.18 0 L135.18 39.41 L0 39.41" stroke="none" stroke-width="0" fill="#b2f2bb"></path><path d="M0 0 C49.15 0, 98.29 0, 135.18 0 M135.18 0 C135.18 9.61, 135.18 19.21, 135.18 39.41 M135.18 39.41 C104.59 39.41, 74.01 39.41, 0 39.41 M0 39.41 C0 31.37, 0 23.32, 0 0" stroke="#2f9e44" stroke-width="1.5" fill="none" stroke-dasharray="1.5 7"></path></g><g stroke-linecap="round"><g transform="translate(879.5496718524546 179.47853917867812) rotate(0 28.171909090423924 0)"><path d="M2.13 1.98 C19.83 -3.46, 41.59 -0.85, 55.73 0.14 M0.25 -1.18 C23.49 1.97, 42.52 -1, 54.52 -1.39" stroke="#1e1e1e" stroke-width="1" fill="none"></path></g></g><mask></mask><g stroke-linecap="round"><g transform="translate(882.6787638827982 192.00028373596248) rotate(0 30.25871717119594 0)"><path d="M-2.25 -2.47 C20.91 -0.45, 46.36 -0.46, 64.08 -2.95 M1.56 1.05 C11.89 -1.2, 24.61 -0.68, 61.97 1.55" stroke="#1e1e1e" stroke-width="1" fill="none"></path></g></g><mask></mask><g transform="translate(1015.2850758552631 178.43056252420226) rotate(0 11.1199951171875 10)"><text x="0" y="14.016" font-family="Virgil, Segoe UI Emoji" font-size="16px" fill="#2f9e44" text-anchor="start" style="white-space: pre;" direction="ltr" dominant-baseline="alphabetic">R2</text></g><g stroke-opacity="0.6" fill-opacity="0.6" stroke-linecap="round" transform="translate(625.9114703791538 127.99436029315436) rotate(0 67.58816690024969 19.705403137739722)"><path d="M0 0 L135.18 0 L135.18 39.41 L0 39.41" stroke="none" stroke-width="0" fill="#b2f2bb"></path><path d="M0 0 C27.18 0, 54.37 0, 135.18 0 M135.18 0 C135.18 9.43, 135.18 18.86, 135.18 39.41 M135.18 39.41 C95.49 39.41, 55.79 39.41, 0 39.41 M0 39.41 C0 29.4, 0 19.38, 0 0" stroke="#2f9e44" stroke-width="1.5" fill="none" stroke-dasharray="1.5 7"></path></g><g stroke-linecap="round"><g transform="translate(639.8857199485365 137.70456006314677) rotate(0 28.171909090423924 0)"><path d="M3.85 -1.67 C9.41 4.09, 26.16 -2.09, 59.93 -0.52 M0.34 -1.27 C11.72 -2.43, 27.7 -2.03, 55.89 -0.97" stroke="#1e1e1e" stroke-width="1" fill="none"></path></g></g><mask></mask><g stroke-linecap="round"><g transform="translate(643.0148119788801 150.22630462043114) rotate(0 30.25871717119594 0)"><path d="M-2.43 3.82 C19.23 -1.85, 37.08 -0.01, 57.74 -0.25 M-1.27 -1.32 C25.86 -0.15, 47.83 -0.2, 59.16 -0.08" stroke="#1e1e1e" stroke-width="1" fill="none"></path></g></g><mask></mask><g transform="translate(595.6211239513441 136.6565834086709) rotate(0 11.1199951171875 10)"><text x="0" y="14.016" font-family="Virgil, Segoe UI Emoji" font-size="16px" fill="#2f9e44" text-anchor="start" style="white-space: pre;" direction="ltr" dominant-baseline="alphabetic">R2</text></g><g stroke-opacity="0.6" fill-opacity="0.6" stroke-linecap="round" transform="translate(865.842875490499 209.36240202656685) rotate(0 67.58816690024969 9.795192926618938)"><path d="M0 0 L135.18 0 L135.18 19.59 L0 19.59" stroke="none" stroke-width="0" fill="#ffec99"></path><path d="M0 0 C38.44 0, 76.87 0, 135.18 0 M135.18 0 C135.18 7.44, 135.18 14.88, 135.18 19.59 M135.18 19.59 C83.31 19.59, 31.43 19.59, 0 19.59 M0 19.59 C0 14.93, 0 10.27, 0 0" stroke="#f08c00" stroke-width="1.5" fill="none" stroke-dasharray="1.5 7"></path></g><g stroke-linecap="round"><g transform="translate(879.8171250598798 219.07260179655927) rotate(0 28.171909090423924 0)"><path d="M-3.67 1.69 C16.49 -1.44, 28.45 1.64, 54.28 -1.65 M1.18 -0.07 C11.93 1.69, 23.33 -0.19, 56.86 -1.19" stroke="#f08c00" stroke-width="1" fill="none"></path></g></g><mask></mask><g transform="translate(1015.5525290626892 209.0246251420834) rotate(0 10.871994018554688 10)"><text x="0" y="14.016" font-family="Virgil, Segoe UI Emoji" font-size="16px" fill="#f08c00" text-anchor="start" style="white-space: pre;" direction="ltr" dominant-baseline="alphabetic">R3</text></g><g transform="translate(618.6809309047526 261.79500605323597) rotate(0 216.74388122558594 30)"><text x="0" y="14.016" font-family="Virgil, Segoe UI Emoji" font-size="16px" fill="#1e1e1e" text-anchor="start" style="white-space: pre;" direction="ltr" dominant-baseline="alphabetic">STEP N: apply the recursive step (query Q2) on RN-1, </text><text x="0" y="34.016" font-family="Virgil, Segoe UI Emoji" font-size="16px" fill="#1e1e1e" text-anchor="start" style="white-space: pre;" direction="ltr" dominant-baseline="alphabetic">append the result (RN) in the result table, continue</text><text x="0" y="54.016" font-family="Virgil, Segoe UI Emoji" font-size="16px" fill="#1e1e1e" text-anchor="start" style="white-space: pre;" direction="ltr" dominant-baseline="alphabetic">until RN is empty.</text></g><g stroke-opacity="0.6" fill-opacity="0.6" stroke-linecap="round" transform="translate(875.0284319665052 381.27987388365545) rotate(0 67.58816690024969 27.007663293302357)"><path d="M0 0 L135.18 0 L135.18 54.02 L0 54.02" stroke="none" stroke-width="0" fill="#ffc9c9"></path><path d="M0 0 C43.01 0, 86.02 0, 135.18 0 M135.18 0 C135.18 16.95, 135.18 33.89, 135.18 54.02 M135.18 54.02 C103.97 54.02, 72.76 54.02, 0 54.02 M0 54.02 C0 39.83, 0 25.64, 0 0" stroke="#e03131" stroke-width="1.5" fill="none" stroke-dasharray="1.5 7"></path></g><g stroke-linecap="round" transform="translate(875.0284319665052 353.60362799167297) rotate(0 67.33162264458042 14.61198640716708)"><path d="M0 0 L134.66 0 L134.66 29.22 L0 29.22" stroke="none" stroke-width="0" fill="#a5d8ff"></path><path d="M0 0 C47.02 0, 94.03 0, 134.66 0 M134.66 0 C134.66 11.39, 134.66 22.78, 134.66 29.22 M134.66 29.22 C101.61 29.22, 68.56 29.22, 0 29.22 M0 29.22 C0 22.5, 0 15.77, 0 0" stroke="#1e1e1e" stroke-width="1.5" fill="none" stroke-dasharray="1.5 7"></path></g><g transform="translate(896.5114065397966 358.60362799167297) rotate(0 45.84864807128906 9.61198640716708)"><text x="45.84864807128906" y="13.472160148285365" font-family="Virgil, Segoe UI Emoji" font-size="15.379178251467312px" fill="#1e1e1e" text-anchor="middle" style="white-space: pre;" direction="ltr" dominant-baseline="alphabetic">result table</text></g><g stroke-linecap="round"><g transform="translate(891.1734629963457 394.2681190283165) rotate(0 33.38892929235499 0)"><path d="M3.59 1.94 C27.8 -0.87, 55.52 -3.47, 70.49 -2.18 M-1.49 -0.75 C23.22 -1.21, 49.19 -1.45, 67.59 1.69" stroke="#1e1e1e" stroke-width="1" fill="none"></path></g></g><mask></mask><g stroke-linecap="round"><g transform="translate(892.2179871275466 407.8339396804754) rotate(0 28.171909090423924 0)"><path d="M1.17 -0.17 C22.13 -3.31, 43.43 -2.73, 59.4 0.59 M-1.91 -1.4 C15.04 -1.21, 33.06 2.12, 54.4 0.71" stroke="#1e1e1e" stroke-width="1" fill="none"></path></g></g><mask></mask><g stroke-linecap="round"><g transform="translate(895.3470791578902 420.35568423775976) rotate(0 30.25871717119594 0)"><path d="M2.27 -2.77 C24.8 -2.13, 45.22 0.64, 59.96 -2.98 M-1.08 -1.63 C16.71 2.54, 29.85 1.56, 60.5 0.98" stroke="#1e1e1e" stroke-width="1" fill="none"></path></g></g><mask></mask><g transform="translate(1024.984640600167 397.8557369547252) rotate(0 7.5919952392578125 10)"><text x="0" y="14.016" font-family="Virgil, Segoe UI Emoji" font-size="16px" fill="#e03131" text-anchor="start" style="white-space: pre;" direction="ltr" dominant-baseline="alphabetic">R1</text></g><g mask="url(#mask-10I2-sz8cB3Uv2ofcPGCz)" stroke-linecap="round"><g transform="translate(775.3417766666544 409.4499268836719) rotate(0 47.40678046668836 51.580739651478154)"><path d="M0 0 C21.89 23.82, 43.78 47.63, 94.81 103.16 M0 0 C24.91 27.1, 49.81 54.2, 94.81 103.16" stroke="#1e1e1e" stroke-width="1" fill="none"></path></g><g transform="translate(775.3417766666544 409.4499268836719) rotate(0 47.40678046668836 51.580739651478154)"><path d="M72.62 91.65 C77.74 94.31, 82.87 96.97, 94.81 103.16 M72.62 91.65 C78.45 94.67, 84.28 97.7, 94.81 103.16" stroke="#1e1e1e" stroke-width="1" fill="none"></path></g><g transform="translate(775.3417766666544 409.4499268836719) rotate(0 47.40678046668836 51.580739651478154)"><path d="M85.21 80.08 C87.43 85.41, 89.65 90.74, 94.81 103.16 M85.21 80.08 C87.73 86.14, 90.26 92.21, 94.81 103.16" stroke="#1e1e1e" stroke-width="1" fill="none"></path></g></g><mask id="mask-10I2-sz8cB3Uv2ofcPGCz"><rect x="0" y="0" fill="#fff" width="970.1553376000311" height="612.6114061866282"></rect><rect x="811.4125585981865" y="451.03066653515" fill="#000" width="22.6719970703125" height="20" opacity="1"></rect></mask><g transform="translate(811.4125585981865 451.03066653515) rotate(0 11.33599853515625 10)"><text x="11.33599853515625" y="14.016" font-family="Virgil, Segoe UI Emoji" font-size="16px" fill="#1e1e1e" text-anchor="middle" style="white-space: pre;" direction="ltr" dominant-baseline="alphabetic">Q2</text></g><g stroke-opacity="0.6" fill-opacity="0.6" stroke-linecap="round" transform="translate(875.6119021224176 435.06522717314283) rotate(0 67.58816690024969 19.705403137739722)"><path d="M0 0 L135.18 0 L135.18 39.41 L0 39.41" stroke="none" stroke-width="0" fill="#b2f2bb"></path><path d="M0 0 C42.54 0, 85.08 0, 135.18 0 M135.18 0 C135.18 8.61, 135.18 17.22, 135.18 39.41 M135.18 39.41 C84.15 39.41, 33.11 39.41, 0 39.41 M0 39.41 C0 27.69, 0 15.98, 0 0" stroke="#2f9e44" stroke-width="1.5" fill="none" stroke-dasharray="1.5 7"></path></g><g stroke-linecap="round"><g transform="translate(889.5861516917994 444.77542694313524) rotate(0 28.171909090423924 0)"><path d="M-2.79 -2.16 C9.44 2.7, 28.8 -2.82, 57.77 -0.03 M-0.14 -0.79 C20.42 -0.6, 38.72 0, 55.12 -1.77" stroke="#1e1e1e" stroke-width="1" fill="none"></path></g></g><mask></mask><g stroke-linecap="round"><g transform="translate(892.715243722143 457.2971715004196) rotate(0 30.25871717119594 0)"><path d="M-3.26 1.62 C15.76 -3.24, 26.17 0.62, 62.47 3.1 M0.77 -0.65 C17.28 0.42, 34.52 -1.29, 58.82 1.5" stroke="#1e1e1e" stroke-width="1" fill="none"></path></g></g><mask></mask><g transform="translate(1025.321555694608 443.7274502886594) rotate(0 11.1199951171875 10)"><text x="0" y="14.016" font-family="Virgil, Segoe UI Emoji" font-size="16px" fill="#2f9e44" text-anchor="start" style="white-space: pre;" direction="ltr" dominant-baseline="alphabetic">R2</text></g><g stroke-opacity="0.6" fill-opacity="0.6" stroke-linecap="round" transform="translate(875.8793553298437 474.6592897910242) rotate(0 67.58816690024969 9.795192926618938)"><path d="M0 0 L135.18 0 L135.18 19.59 L0 19.59" stroke="none" stroke-width="0" fill="#ffec99"></path><path d="M0 0 C39.62 0, 79.24 0, 135.18 0 M135.18 0 C135.18 4.15, 135.18 8.29, 135.18 19.59 M135.18 19.59 C107.67 19.59, 80.16 19.59, 0 19.59 M0 19.59 C0 15.65, 0 11.71, 0 0" stroke="#f08c00" stroke-width="1.5" fill="none" stroke-dasharray="1.5 7"></path></g><g stroke-linecap="round"><g transform="translate(889.8536048992246 484.3694895610166) rotate(0 28.171909090423924 0)"><path d="M-0.11 -2.45 C15.53 -3.07, 41.12 1.08, 59.37 -2.11 M0.47 -1.74 C12.11 -3.06, 28.72 -3.07, 54.75 0.11" stroke="#f08c00" stroke-width="1" fill="none"></path></g></g><mask></mask><g transform="translate(1025.589008902034 474.32151290654076) rotate(0 10.871994018554688 10)"><text x="0" y="14.016" font-family="Virgil, Segoe UI Emoji" font-size="16px" fill="#f08c00" text-anchor="start" style="white-space: pre;" direction="ltr" dominant-baseline="alphabetic">R3</text></g><g stroke-opacity="0.6" fill-opacity="0.6" stroke-linecap="round" transform="translate(632.2446869476171 398.3575601550341) rotate(0 67.58816690024969 9.795192926618938)"><path d="M0 0 L135.18 0 L135.18 19.59 L0 19.59" stroke="none" stroke-width="0" fill="#ffec99"></path><path d="M0 0 C29.39 0, 58.79 0, 135.18 0 M135.18 0 C135.18 3.94, 135.18 7.89, 135.18 19.59 M135.18 19.59 C93.56 19.59, 51.93 19.59, 0 19.59 M0 19.59 C0 12.77, 0 5.94, 0 0" stroke="#f08c00" stroke-width="1.5" fill="none" stroke-dasharray="1.5 7"></path></g><g stroke-linecap="round"><g transform="translate(646.2189365169979 408.0677599250265) rotate(0 28.171909090423924 0)"><path d="M1.97 1.2 C16.81 -2.04, 42.75 -2.77, 53.53 2.35 M1.11 1.22 C16.69 -0.27, 33.34 0.89, 56.08 0.46" stroke="#f08c00" stroke-width="1" fill="none"></path></g></g><mask></mask><g transform="translate(602.9543405198074 398.01978327055065) rotate(0 10.871994018554688 10)"><text x="0" y="14.016" font-family="Virgil, Segoe UI Emoji" font-size="16px" fill="#f08c00" text-anchor="start" style="white-space: pre;" direction="ltr" dominant-baseline="alphabetic">R3</text></g><g transform="translate(876.5348711301986 507.12188538175803) rotate(0 12.487991333007812 10)"><text x="0" y="14.016" font-family="Virgil, Segoe UI Emoji" font-size="16px" fill="#1e1e1e" text-anchor="start" style="white-space: pre;" direction="ltr" dominant-baseline="alphabetic">null</text></g><g stroke-linecap="round"><g transform="translate(10 321.0415311831133) rotate(0 250.36320533357684 0)"><path d="M0 0 C169.83 0, 339.67 0, 500.73 0" stroke="#1e1e1e" stroke-width="1.5" fill="none" stroke-dasharray="8 9"></path></g></g><mask></mask><g stroke-linecap="round"><g transform="translate(580.2260155562658 11.450712288368777) rotate(0 250.36320533357684 0)"><path d="M0 0 C184.97 0, 369.95 0, 500.73 0" stroke="#1e1e1e" stroke-width="1.5" fill="none" stroke-dasharray="8 9"></path></g></g><mask></mask><g stroke-linecap="round"><g transform="translate(579.737316334079 245.82158489393723) rotate(0 250.36320533357684 0)"><path d="M0 0 C172.24 0, 344.48 0, 500.73 0" stroke="#1e1e1e" stroke-width="1.5" fill="none" stroke-dasharray="8 9"></path></g></g><mask></mask><g stroke-linecap="round"><g transform="translate(10.072641066715732 120.43361196802888) rotate(0 250.36320533357684 0)"><path d="M0 0 C151.82 0, 303.65 0, 500.73 0" stroke="#1e1e1e" stroke-width="1.5" fill="none" stroke-dasharray="8 9"></path></g></g><mask></mask><g transform="translate(617.8568384146024 566.2948957440086) rotate(0 191.90386962890625 10)"><text x="0" y="14.016" font-family="Virgil, Segoe UI Emoji" font-size="16px" fill="#1e1e1e" text-anchor="start" style="white-space: pre;" direction="ltr" dominant-baseline="alphabetic">Finally, select desired records from result table.</text></g><g stroke-linecap="round"><g transform="translate(580.3651145263652 554.9752271212247) rotate(0 250.36320533357684 0)"><path d="M0 0 C158.45 0, 316.9 0, 500.73 0" stroke="#1e1e1e" stroke-width="1.5" fill="none" stroke-dasharray="8 9"></path></g></g><mask></mask></svg>